<svg width="132" height="141" viewBox="0 0 132 141" fill="none" xmlns="http://www.w3.org/2000/svg">
<g id="Group">
<path id="Vector" d="M28.7369 13.6554C36.6281 8.54636 44.8808 4.06083 53.8161 2.17007C70.6024 -1.38014 89.3264 1.90858 102.639 9.23025C117.929 17.6281 124.445 34.6047 128.993 50.8572C133.049 65.3698 133.872 81.2803 125.921 96.7987C116.845 114.53 100.049 128.157 84.2062 140.487C83.1922 141.282 82.138 139.974 83.162 139.18C96.3341 128.922 109.807 118.06 119.325 104.422C129.877 89.306 131.955 73.1239 128.652 57.5754C125.339 41.9364 119.476 23.944 106.785 14.2689C94.8282 5.15707 76.5158 1.35543 59.9403 3.02494C49.1376 4.11112 39.3288 8.80785 29.8012 14.9629C20.1731 21.1883 10.776 27.8663 1.47921 34.6248C0.445119 35.3791 -0.619088 34.0716 0.435078 33.3174C9.72178 26.5589 19.1189 19.8909 28.757 13.6554H28.7369Z" fill="#DAB692"/>
<path id="Vector_2" d="M52.591 11.0178C67.8815 4.46666 82.0955 5.77891 94.6296 12.5824C119.658 26.1792 134.626 56.6636 120.613 87.3499C112.375 105.388 95.2533 120.681 80.1842 134.035C77.7599 136.185 75.1444 132.885 77.5587 130.745C90.2236 119.52 103.814 107.256 112.636 93.0127C120.281 80.6777 122.736 66.8184 120.402 54.2208C115.594 28.1981 86.6323 2.00369 55.5988 14.3892C38.1255 21.3643 22.4226 34.618 7.65532 46.3979C5.13039 48.4167 2.4948 45.126 5.02979 43.1071C19.7669 31.3373 35.329 18.4067 52.591 11.0077V11.0178Z" fill="#DAB692"/>
<path id="Vector_3" d="M88.4616 20.1384C100.103 25.446 108.407 37.5042 113.775 48.5432C119.425 60.1574 117.274 72.5183 110.257 85.2828C101.33 101.508 88.3611 115.928 73.0905 127.27C71.0195 128.803 68.9084 126.18 70.9894 124.636C86.4409 113.153 99.8015 98.3198 108.266 81.6301C112.438 73.4164 114.801 64.8596 112.659 56.7569C110.699 49.3303 106.155 42.9732 101.712 37.0501C96.9464 30.7132 91.2564 24.8204 83.2039 22.2372C76.1969 19.987 68.2047 20.2292 60.4035 22.0051C41.9762 26.2028 25.9918 38.7453 10.9323 50.5411C8.90158 52.1354 6.79042 49.5119 8.8312 47.9075C31.3802 30.239 62.2231 8.171 88.4516 20.1384H88.4616Z" fill="#DAB692"/>
<path id="Vector_4" d="M60.7652 27.037C75.9749 25.1194 87.9641 32.5776 97.0437 41.9837C101.368 46.4646 105.251 51.7025 106.575 58.091C108.04 65.1758 105.511 72.5431 102.17 79.638C94.9368 94.9783 83.4292 108.704 69.4135 119.26C67.3567 120.815 65.2498 118.18 67.3166 116.626C79.8576 107.18 90.3418 95.1801 97.3146 81.606C100.806 74.824 104.177 67.2951 103.063 60.2709C102.06 53.9531 98.0972 48.8464 93.9135 44.5067C85.0144 35.2925 73.0553 28.137 58.0263 31.0537C42.646 34.041 29.3726 44.4765 16.922 54.3164C14.8954 55.9211 12.7985 53.287 14.8251 51.6824C28.5801 40.813 43.6292 29.1967 60.7552 27.037H60.7652Z" fill="#DAB692"/>
<path id="Vector_5" d="M57.8019 38.7376C69.2285 38.5659 79.7676 45.3617 87.14 52.1475C94.9762 59.3472 98.8389 69.2431 93.5945 80.8354C87.6846 93.8919 74.8965 105.626 63.3488 114.492C62.3201 115.279 61.2612 113.966 62.2999 113.179C72.8693 105.07 83.6303 95.0633 90.1656 83.6729C97.3362 71.1718 93.7055 60.4176 84.7397 52.6726C77.7102 46.6038 68.0183 40.3027 57.4388 40.5653C44.449 40.8783 30.491 51.1074 20.4461 59.731C19.4577 60.5792 18.4088 59.2564 19.3972 58.4182C29.8254 49.4716 44.3381 38.9597 57.812 38.7477L57.8019 38.7376Z" fill="#DAB692"/>
<path id="Vector_6" d="M54.1899 43.7563C65.1242 43.3113 73.4052 49.7026 79.3045 57.0646C84.9324 64.0727 92.4598 72.2843 87.2439 82.8521C81.8672 93.7738 70.531 103.533 60.4811 110.52C59.4259 111.249 58.3707 109.944 59.436 109.206C68.5612 102.855 77.4553 94.9469 83.5556 85.7544C86.9324 80.6677 88.48 75.4394 86.058 70.5449C83.9074 66.1762 80.7416 62.0907 77.7367 58.3287C72.2395 51.4723 64.6317 45.3845 54.4814 45.5766C43.4969 45.789 33.4571 55.0118 24.4825 61.4637C23.4374 62.212 22.3821 60.8974 23.4373 60.149C32.6531 53.5252 42.8939 44.2215 54.1899 43.7664V43.7563Z" fill="#DAB692"/>
<path id="Vector_7" d="M53.6191 52.1911C62.6746 50.4534 69.409 53.799 74.151 60.1106C78.7534 66.2326 82.2701 73.1435 78.2254 81.6922C73.7824 91.0699 64.1988 97.1219 56.9066 104.432C56.01 105.331 54.974 104.023 55.8705 103.134C61.8578 97.1419 69.3194 92.1684 74.1809 85.2375C80.6562 76.0097 77.9664 68.4796 72.6168 61.359C67.7553 54.8875 60.9313 51.9814 51.7164 54.4281C42.9896 56.7451 35.518 62.8171 28.4449 68.5296C27.4487 69.3385 26.4027 68.0302 27.4089 67.2313C35.2989 60.8597 43.7965 54.0986 53.649 52.2011L53.6191 52.1911Z" fill="#DAB692"/>
<path id="Vector_8" d="M69.3031 65.0147C78.5169 77.4671 62.0438 93.1099 51.095 101.495C50.0779 102.272 49.0309 100.976 50.058 100.198C60.1093 92.5017 76.3231 77.9058 67.7575 66.261C59.4113 54.9152 41.3927 66.3308 31.471 73.4891C30.4339 74.2369 29.3869 72.9408 30.4339 72.1931C41.293 64.3667 60.3487 52.8913 69.3231 65.0247L69.3031 65.0147Z" fill="#DAB692"/>
<path id="Vector_9" d="M61.4316 70.4469C68.9928 78.6587 58.2069 89.7736 50.393 96.4643C49.4124 97.2994 48.3611 96.007 49.3417 95.1719C56.1852 89.3063 66.6981 79.0465 59.8647 71.6896C53.84 65.1977 43.0137 69.5919 36.4128 75.8353C35.4828 76.7201 34.4315 75.4177 35.3615 74.5429C42.8216 67.4942 54.8407 63.2789 61.4417 70.4569L61.4316 70.4469Z" fill="#DAB692"/>
<path id="Vector_10" d="M55.2683 77.7898C57.5866 82.2368 54.1141 88.6724 48.8208 90.661C47.6566 91.0907 47.0597 89.5118 48.2337 89.0721C52.9898 87.2933 55.7259 81.5972 52.94 78.0796C49.9153 74.2522 43.6767 75.1416 39.1595 77.9297C38.075 78.5993 37.4979 77.0104 38.5725 76.3408C44.1046 72.9232 52.4425 72.3436 55.2782 77.7998L55.2683 77.7898Z" fill="#DAB692"/>
<path id="Vector_11" d="M50.0818 79.3916C52.3141 82.1514 50.2201 86.9663 46.5555 88.63C45.4196 89.1487 44.8269 87.5926 45.9727 87.0739C48.4915 85.9289 50.1213 82.5624 48.5508 80.6051C46.9802 78.6576 43.3354 79.4112 41.6266 81.6033C40.8562 82.5917 39.4536 81.6816 40.224 80.6932C42.7132 77.5126 47.8593 76.622 50.0917 79.3818L50.0818 79.3916Z" fill="#DAB692"/>
</g>
</svg>
