<svg width="137" height="113" viewBox="0 0 137 113" fill="none" xmlns="http://www.w3.org/2000/svg">
<g id="Group">
<path id="Vector" d="M4.04094 54.8756C7.40667 50.3188 10.703 47.0983 14.6759 44.5972C16.0812 43.7065 17.5906 42.987 19.3255 42.7814C22.4137 42.4217 24.4261 44.1518 23.923 47.0812C23.4719 49.685 23.177 52.3574 22.0493 54.7728C19.9848 59.2096 17.0528 62.9955 13.1839 66.079C11.6052 67.3295 9.7835 68.1518 7.75365 68.5972C5.06454 69.1796 3.06939 67.8263 1.28243 66.079C-0.46983 64.3488 -0.140196 62.413 0.588466 60.4601C1.49062 58.0619 3.15614 56.1432 4.02359 54.9098L4.04094 54.8756Z" fill="#D49E8D"/>
<path id="Vector_2" d="M93.4065 29.4524C94.1478 28.2729 95.7168 26.8853 97.8893 26.0354C99.51 25.4109 101.269 25.7231 103.338 27.3016C105.424 28.88 106.148 30.4932 105.976 32.2277C105.717 34.7948 104.7 36.9283 103.32 38.767C101.941 40.6056 100.079 42.08 98.2513 43.5717C97.303 44.3522 95.9582 44.7512 94.3892 44.7338C91.4409 44.6991 89.1478 42.7217 89.0099 40.0505C88.9581 39.1833 89.1133 38.3333 89.3892 37.6048C90.4064 34.9683 91.372 32.3144 93.4065 29.4524Z" fill="#D49E8D"/>
<path id="Vector_3" d="M63.5347 63.4805C61.7652 65.0358 60.1566 67.2131 57.3148 68.3017C55.027 69.1657 53.2933 68.751 50.8447 66.9193C48.3961 65.0876 47.556 63.6015 48.2173 61.3378C49.5578 56.8622 52.2746 53.3544 56.8501 51.298C58.6195 50.5031 60.6213 50.3303 63.2308 52.2484C65.5722 53.9592 66.2693 55.3589 65.9118 57.8645C65.6258 59.8863 64.8215 61.6143 63.4989 63.4633L63.5347 63.4805Z" fill="#D49E8D"/>
<path id="Vector_4" d="M97.6464 79.8771C95.9088 82.4489 93.8647 84.7141 90.7985 86.0256C88.2263 87.1326 85.9437 86.9453 84.4787 85.4465C82.3153 83.2153 82.9797 81.5122 83.644 80.0304C85.8926 75.0231 89.6572 71.2932 95.2104 69.1302C96.471 68.6362 97.9019 68.3637 99.6564 69.8114C101.258 71.1228 101.036 72.3662 100.917 73.5584C100.661 76.2324 99.1284 78.0718 97.6464 79.8771Z" fill="#D49E8D"/>
<path id="Vector_5" d="M60.5587 21.6473C57.9705 25.6636 54.1491 28.5349 49.7023 30.8072C48.5037 31.4238 47.1489 32.5688 45.0992 30.7544C43.4664 29.3099 44.0222 27.8303 44.4391 26.6324C46.8883 19.5159 52.4989 15.1649 59.5512 12.0999C60.4197 11.7124 61.5314 11.4129 62.8342 12.3994C64.4322 13.6148 63.9632 14.7246 63.8417 15.7991C63.5811 18.3181 61.7399 19.7625 60.5587 21.6473Z" fill="#D49E8D"/>
<path id="Vector_6" d="M97.9555 12.1973C96.4481 14.4018 94.5174 16.2214 91.7737 17.2186C90.5373 17.6735 89.1655 18.2684 87.4041 16.8162C85.6427 15.3641 85.8968 13.8594 86.2694 12.6522C87.8783 7.50841 91.2487 3.79928 95.957 1.1749C96.0586 1.12241 96.1771 1.08742 96.2957 1.05243C97.3627 0.737499 98.4974 0.352591 99.9201 1.55981C101.139 2.59207 101.055 3.69431 100.936 4.65658C100.598 7.5609 99.666 10.1153 97.9555 12.1798V12.1973Z" fill="#D49E8D"/>
<path id="Vector_7" d="M46.5739 105.035C44.3575 107.064 42.141 109.127 39.8896 111.121C39.4009 111.554 38.7552 111.918 38.0746 112.161C36.9576 112.56 35.7708 113.358 34.1128 111.866C32.6294 110.531 32.9086 109.179 33.3624 108.156C34.1652 106.301 34.8807 104.359 36.1722 102.868C38.1967 100.527 40.5528 98.4464 43.3452 96.7819C44.0259 96.3657 44.7938 95.9843 45.6664 95.8109C47.5862 95.4294 49.0173 96.5044 48.9998 98.3597C48.9998 101.012 47.9876 103.145 46.5739 105.035Z" fill="#D49E8D"/>
<path id="Vector_8" d="M134.022 16.7006C132.543 18.7298 131.135 20.4766 128.776 21.3589C127.86 21.6941 126.822 22.0823 125.466 21.1648C124.075 20.2296 123.899 19.0474 124.04 18.0769C124.762 12.6952 127.755 9.02506 132.772 6.9606C133.564 6.62534 134.638 6.57241 135.747 7.43701C137.103 8.47806 137.068 9.53676 136.944 10.5249C136.628 13.101 135.43 15.1302 134.022 16.7183V16.7006Z" fill="#D49E8D"/>
<path id="Vector_9" d="M19.4761 96.6853C18.0369 98.8329 16.581 100.582 14.188 101.448C13.4015 101.725 12.4979 102.002 11.4101 101.24C10.0881 100.322 9.85384 99.1274 10.0714 98.2267C11.1591 93.6544 13.5187 90.0346 17.8863 88.0602C18.7063 87.6791 19.7773 87.4194 21.0491 88.5451C22.0866 89.4631 22.0364 90.381 21.9695 91.2297C21.7854 93.5678 20.6809 95.3344 19.4928 96.6853H19.4761Z" fill="#D49E8D"/>
<path id="Vector_10" d="M115.548 53.98C116.84 52.4439 117.95 50.7351 120.188 49.993C121.025 49.7168 121.989 49.4406 123.19 50.4245C124.154 51.2184 124.045 51.9951 123.918 52.6855C123.226 56.6208 120.934 59.4342 117.349 61.3328C116.494 61.7816 115.366 62.075 113.983 60.9703C112.891 60.0901 112.946 59.1408 113.055 58.3123C113.292 56.5 114.656 55.3953 115.566 53.9973L115.548 53.98Z" fill="#D49E8D"/>
</g>
</svg>
