<svg width="139" height="115" viewBox="0 0 139 115" fill="none" xmlns="http://www.w3.org/2000/svg">
<path d="M4.04094 54.8191C7.40667 50.0871 10.703 46.7427 14.6759 44.1455C16.0812 43.2204 17.5906 42.4732 19.3255 42.2598C22.4137 41.8862 24.4261 43.6829 23.923 46.7249C23.4719 49.4289 23.177 52.2041 22.0493 54.7124C19.9848 59.3198 17.0528 63.2513 13.1839 66.4534C11.6052 67.752 9.7835 68.6059 7.75365 69.0684C5.06454 69.6733 3.06939 68.2679 1.28243 66.4534C-0.46983 64.6567 -0.140196 62.6465 0.588466 60.6185C1.49062 58.1279 3.15614 56.1355 4.02359 54.8547L4.04094 54.8191Z" fill="#D49E8D"/>
<path d="M95.4065 29.929C96.1478 28.7495 97.7168 27.3618 99.8893 26.5119C101.51 25.8875 103.269 26.1997 105.338 27.7781C107.424 29.3566 108.148 30.9697 107.976 32.7043C107.717 35.2714 106.7 37.4049 105.32 39.2435C103.941 41.0822 102.079 42.5565 100.251 44.0482C99.303 44.8288 97.9582 45.2277 96.3892 45.2104C93.4409 45.1757 91.1478 43.1983 91.0099 40.5271C90.9581 39.6598 91.1133 38.8099 91.3892 38.0814C92.4064 35.4449 93.372 32.791 95.4065 29.929Z" fill="#D49E8D"/>
<path d="M64.5347 63.9571C62.7652 65.5123 61.1566 67.6896 58.3148 68.7783C56.027 69.6423 54.2933 69.2276 51.8447 67.3959C49.3961 65.5642 48.556 64.0781 49.2173 61.8144C50.5578 57.3388 53.2746 53.8309 57.8501 51.7746C59.6195 50.9797 61.6213 50.8069 64.2308 52.725C66.5722 54.4357 67.2693 55.8354 66.9118 58.341C66.6258 60.3628 65.8215 62.0908 64.4989 63.9398L64.5347 63.9571Z" fill="#D49E8D"/>
<path d="M99.46 80.9727C97.626 83.6874 95.4683 86.0785 92.2317 87.4628C89.5166 88.6313 87.1072 88.4336 85.5609 86.8515C83.2773 84.4964 83.9786 82.6986 84.6798 81.1345C87.0533 75.849 91.027 71.9119 96.8888 69.6287C98.2194 69.1073 99.7298 68.8197 101.582 70.3478C103.272 71.7321 103.038 73.0445 102.912 74.303C102.643 77.1255 101.024 79.0671 99.46 80.9727Z" fill="#D49E8D"/>
<path d="M61.5587 22.1239C58.9705 26.1402 55.1491 29.0114 50.7023 31.2838C49.5037 31.9003 48.1489 33.0453 46.0992 31.231C44.4664 29.7865 45.0222 28.3068 45.4391 27.109C47.8883 19.9925 53.4989 15.6415 60.5512 12.5765C61.4197 12.1889 62.5314 11.8895 63.8342 12.8759C65.4322 14.0914 64.9632 15.2011 64.8417 16.2756C64.5811 18.7946 62.7399 20.2391 61.5587 22.1239Z" fill="#D49E8D"/>
<path d="M100.752 11.6739C99.1447 13.8784 97.0852 15.6979 94.1586 16.6952C92.8398 17.1501 91.3765 17.745 89.4977 16.2928C87.6189 14.8406 87.8899 13.336 88.2873 12.1288C90.0036 6.98498 93.5986 3.27585 98.6208 0.651459C98.7292 0.598971 98.8556 0.56398 98.9821 0.528988C100.12 0.214062 101.331 -0.170847 102.848 1.03637C104.149 2.06863 104.058 3.17087 103.932 4.13314C103.571 7.03747 102.577 9.59187 100.752 11.6564V11.6739Z" fill="#D49E8D"/>
<path d="M46.5739 106.512C44.3575 108.54 42.141 110.604 39.8896 112.597C39.4009 113.031 38.7552 113.395 38.0746 113.638C36.9576 114.037 35.7708 114.834 34.1128 113.343C32.6294 112.008 32.9086 110.656 33.3624 109.633C34.1652 107.777 34.8807 105.835 36.1722 104.344C38.1967 102.004 40.5528 99.9229 43.3452 98.2584C44.0259 97.8423 44.7938 97.4608 45.6664 97.2875C47.5862 96.906 49.0173 97.981 48.9998 99.8362C48.9998 102.489 47.9876 104.622 46.5739 106.512Z" fill="#D49E8D"/>
<path d="M136.022 16.1772C134.543 18.2063 133.135 19.9532 130.776 20.8354C129.86 21.1707 128.822 21.5589 127.466 20.6413C126.075 19.7062 125.899 18.524 126.04 17.5535C126.762 12.1718 129.755 8.50162 134.772 6.43716C135.564 6.1019 136.638 6.04897 137.747 6.91357C139.103 7.95463 139.068 9.01332 138.944 10.0014C138.628 12.5776 137.43 14.6068 136.022 16.1948V16.1772Z" fill="#D49E8D"/>
<path d="M21.2657 97.1619C19.7067 99.3095 18.1295 101.059 15.537 101.925C14.685 102.202 13.706 102.479 12.5276 101.717C11.0955 100.799 10.8417 99.6039 11.0773 98.7033C12.2557 94.131 14.8119 90.5112 19.5435 88.5367C20.4318 88.1557 21.5921 87.8959 22.9699 89.0217C24.0938 89.9396 24.0395 90.8576 23.9669 91.7062C23.7675 94.0444 22.571 95.8109 21.2839 97.1619H21.2657Z" fill="#D49E8D"/>
<path d="M117.548 54.4566C118.84 52.9204 119.95 51.2117 122.188 50.4695C123.025 50.1934 123.989 49.9172 125.19 50.901C126.154 51.695 126.045 52.4717 125.918 53.1621C125.226 57.0974 122.934 59.9107 119.349 61.8094C118.494 62.2581 117.366 62.5515 115.983 61.4469C114.891 60.5666 114.946 59.6173 115.055 58.7888C115.292 56.9765 116.656 55.8719 117.566 54.4738L117.548 54.4566Z" fill="#D49E8D"/>
</svg>
