<svg xmlns="http://www.w3.org/2000/svg" xmlns:xlink="http://www.w3.org/1999/xlink" zoomAndPan="magnify" preserveAspectRatio="xMidYMid meet" version="1.0" viewBox="18.58 98.07 344.71 184.58"><defs><g/></defs><g fill="#000000" fill-opacity="1"><g transform="translate(107.431271, 238.510791)"><g><path d="M 16.203125 0.28125 C 15.554688 0.28125 15.234375 0.109375 15.234375 -0.234375 L 15.234375 -12.515625 L 10.25 -0.125 C 10.144531 0.144531 9.800781 0.28125 9.21875 0.28125 C 8.625 0.28125 8.265625 0.144531 8.140625 -0.125 L 2.578125 -12.703125 L 2.578125 -0.046875 C 2.578125 0.171875 2.34375 0.28125 1.875 0.28125 C 1.414062 0.28125 1.1875 0.171875 1.1875 -0.046875 L 1.1875 -15.8125 C 1.1875 -16.175781 1.582031 -16.359375 2.375 -16.359375 C 2.90625 -16.359375 3.234375 -16.222656 3.359375 -15.953125 L 9.53125 -1.9375 L 15.1875 -15.953125 C 15.289062 -16.222656 15.617188 -16.359375 16.171875 -16.359375 C 16.828125 -16.367188 17.15625 -16.1875 17.15625 -15.8125 L 17.15625 -0.234375 C 17.15625 0.109375 16.835938 0.28125 16.203125 0.28125 Z M 16.203125 0.28125 "/></g></g></g><g fill="#000000" fill-opacity="1"><g transform="translate(145.18112, 238.510791)"><g><path d="M 15.96875 -0.234375 C 15.96875 0.109375 15.601562 0.28125 14.875 0.28125 C 14.3125 0.28125 13.972656 0.144531 13.859375 -0.125 L 11.640625 -5.21875 L 3.90625 -5.21875 L 1.6875 0.015625 C 1.59375 0.191406 1.367188 0.28125 1.015625 0.28125 C 0.535156 0.28125 0.296875 0.160156 0.296875 -0.078125 C 0.296875 -0.078125 0.300781 -0.109375 0.3125 -0.171875 L 7.03125 -15.96875 C 7.132812 -16.226562 7.503906 -16.359375 8.140625 -16.359375 C 8.691406 -16.359375 9.035156 -16.21875 9.171875 -15.9375 L 15.890625 -0.453125 C 15.941406 -0.335938 15.96875 -0.265625 15.96875 -0.234375 Z M 11.171875 -6.296875 L 7.734375 -14.234375 L 4.359375 -6.296875 Z M 11.171875 -6.296875 "/></g></g></g><g fill="#000000" fill-opacity="1"><g transform="translate(180.847058, 238.510791)"><g><path d="M 14.09375 -4.625 C 14.09375 -3.09375 13.382812 -1.890625 11.96875 -1.015625 C 10.5625 -0.148438 9.007812 0.28125 7.3125 0.28125 C 5.882812 0.28125 4.484375 -0.0507812 3.109375 -0.71875 C 1.742188 -1.394531 0.921875 -2.507812 0.640625 -4.0625 C 0.609375 -4.238281 0.59375 -4.34375 0.59375 -4.375 C 0.59375 -4.726562 0.925781 -4.90625 1.59375 -4.90625 C 2.125 -4.90625 2.429688 -4.75 2.515625 -4.4375 C 3.148438 -1.988281 4.78125 -0.773438 7.40625 -0.796875 C 8.457031 -0.804688 9.507812 -1.125 10.5625 -1.75 C 11.625 -2.382812 12.15625 -3.304688 12.15625 -4.515625 C 12.15625 -5.378906 11.628906 -6.054688 10.578125 -6.546875 C 9.804688 -6.910156 8.832031 -7.15625 7.65625 -7.28125 C 6.945312 -7.351562 6.195312 -7.46875 5.40625 -7.625 C 4.625 -7.789062 3.90625 -8.046875 3.25 -8.390625 C 1.75 -9.160156 1 -10.347656 1 -11.953125 C 1 -13.546875 1.738281 -14.675781 3.21875 -15.34375 C 4.707031 -16.019531 6.113281 -16.359375 7.4375 -16.359375 C 8.75 -16.359375 10.003906 -16.050781 11.203125 -15.4375 C 12.398438 -14.832031 13.1875 -13.851562 13.5625 -12.5 C 13.613281 -12.332031 13.640625 -12.234375 13.640625 -12.203125 C 13.640625 -11.867188 13.304688 -11.703125 12.640625 -11.703125 C 12.097656 -11.703125 11.785156 -11.863281 11.703125 -12.1875 C 11.234375 -14.25 9.816406 -15.28125 7.453125 -15.28125 C 6.453125 -15.28125 5.445312 -15.019531 4.4375 -14.5 C 3.4375 -13.976562 2.9375 -13.128906 2.9375 -11.953125 C 2.9375 -11.128906 3.515625 -10.460938 4.671875 -9.953125 C 5.210938 -9.722656 5.78125 -9.546875 6.375 -9.421875 C 6.96875 -9.304688 7.457031 -9.226562 7.84375 -9.1875 C 8.625 -9.101562 9.414062 -8.972656 10.21875 -8.796875 C 11.03125 -8.628906 11.742188 -8.347656 12.359375 -7.953125 C 13.515625 -7.203125 14.09375 -6.09375 14.09375 -4.625 Z M 14.09375 -4.625 "/></g></g></g><g fill="#000000" fill-opacity="1"><g transform="translate(214.938222, 238.510791)"><g><path d="M 14.09375 -4.625 C 14.09375 -3.09375 13.382812 -1.890625 11.96875 -1.015625 C 10.5625 -0.148438 9.007812 0.28125 7.3125 0.28125 C 5.882812 0.28125 4.484375 -0.0507812 3.109375 -0.71875 C 1.742188 -1.394531 0.921875 -2.507812 0.640625 -4.0625 C 0.609375 -4.238281 0.59375 -4.34375 0.59375 -4.375 C 0.59375 -4.726562 0.925781 -4.90625 1.59375 -4.90625 C 2.125 -4.90625 2.429688 -4.75 2.515625 -4.4375 C 3.148438 -1.988281 4.78125 -0.773438 7.40625 -0.796875 C 8.457031 -0.804688 9.507812 -1.125 10.5625 -1.75 C 11.625 -2.382812 12.15625 -3.304688 12.15625 -4.515625 C 12.15625 -5.378906 11.628906 -6.054688 10.578125 -6.546875 C 9.804688 -6.910156 8.832031 -7.15625 7.65625 -7.28125 C 6.945312 -7.351562 6.195312 -7.46875 5.40625 -7.625 C 4.625 -7.789062 3.90625 -8.046875 3.25 -8.390625 C 1.75 -9.160156 1 -10.347656 1 -11.953125 C 1 -13.546875 1.738281 -14.675781 3.21875 -15.34375 C 4.707031 -16.019531 6.113281 -16.359375 7.4375 -16.359375 C 8.75 -16.359375 10.003906 -16.050781 11.203125 -15.4375 C 12.398438 -14.832031 13.1875 -13.851562 13.5625 -12.5 C 13.613281 -12.332031 13.640625 -12.234375 13.640625 -12.203125 C 13.640625 -11.867188 13.304688 -11.703125 12.640625 -11.703125 C 12.097656 -11.703125 11.785156 -11.863281 11.703125 -12.1875 C 11.234375 -14.25 9.816406 -15.28125 7.453125 -15.28125 C 6.453125 -15.28125 5.445312 -15.019531 4.4375 -14.5 C 3.4375 -13.976562 2.9375 -13.128906 2.9375 -11.953125 C 2.9375 -11.128906 3.515625 -10.460938 4.671875 -9.953125 C 5.210938 -9.722656 5.78125 -9.546875 6.375 -9.421875 C 6.96875 -9.304688 7.457031 -9.226562 7.84375 -9.1875 C 8.625 -9.101562 9.414062 -8.972656 10.21875 -8.796875 C 11.03125 -8.628906 11.742188 -8.347656 12.359375 -7.953125 C 13.515625 -7.203125 14.09375 -6.09375 14.09375 -4.625 Z M 14.09375 -4.625 "/></g></g></g><g fill="#000000" fill-opacity="1"><g transform="translate(249.029386, 238.510791)"><g><path d="M 15.96875 -0.234375 C 15.96875 0.109375 15.601562 0.28125 14.875 0.28125 C 14.3125 0.28125 13.972656 0.144531 13.859375 -0.125 L 11.640625 -5.21875 L 3.90625 -5.21875 L 1.6875 0.015625 C 1.59375 0.191406 1.367188 0.28125 1.015625 0.28125 C 0.535156 0.28125 0.296875 0.160156 0.296875 -0.078125 C 0.296875 -0.078125 0.300781 -0.109375 0.3125 -0.171875 L 7.03125 -15.96875 C 7.132812 -16.226562 7.503906 -16.359375 8.140625 -16.359375 C 8.691406 -16.359375 9.035156 -16.21875 9.171875 -15.9375 L 15.890625 -0.453125 C 15.941406 -0.335938 15.96875 -0.265625 15.96875 -0.234375 Z M 11.171875 -6.296875 L 7.734375 -14.234375 L 4.359375 -6.296875 Z M 11.171875 -6.296875 "/></g></g></g><g fill="#000000" fill-opacity="1"><g transform="translate(284.695324, 238.510791)"><g><path d="M 8.875 0.28125 C 3.351562 0.28125 0.59375 -2.492188 0.59375 -8.046875 C 0.59375 -10.554688 1.359375 -12.566406 2.890625 -14.078125 C 4.429688 -15.597656 6.445312 -16.359375 8.9375 -16.359375 C 10.425781 -16.359375 11.910156 -15.976562 13.390625 -15.21875 C 14.878906 -14.457031 15.8125 -13.300781 16.1875 -11.75 C 16.238281 -11.53125 16.265625 -11.351562 16.265625 -11.21875 C 16.265625 -10.863281 15.945312 -10.6875 15.3125 -10.6875 C 14.707031 -10.6875 14.382812 -10.851562 14.34375 -11.1875 C 14.15625 -12.476562 13.519531 -13.484375 12.4375 -14.203125 C 11.351562 -14.921875 10.195312 -15.28125 8.96875 -15.28125 C 6.90625 -15.28125 5.3125 -14.550781 4.1875 -13.09375 C 3.070312 -11.644531 2.515625 -9.945312 2.515625 -8 C 2.515625 -6.050781 3.046875 -4.359375 4.109375 -2.921875 C 5.179688 -1.492188 6.765625 -0.785156 8.859375 -0.796875 C 10.160156 -0.796875 11.347656 -1.175781 12.421875 -1.9375 C 13.722656 -2.863281 14.375 -3.835938 14.375 -4.859375 L 14.375 -7.015625 L 8.859375 -7.015625 C 8.210938 -7.015625 7.890625 -7.195312 7.890625 -7.5625 C 7.890625 -7.925781 8.210938 -8.109375 8.859375 -8.109375 L 15.328125 -8.109375 C 15.972656 -8.109375 16.296875 -7.925781 16.296875 -7.5625 L 16.296875 -4.859375 C 16.296875 -4.234375 16.019531 -3.5625 15.46875 -2.84375 C 14.925781 -2.132812 14.410156 -1.609375 13.921875 -1.265625 C 12.453125 -0.234375 10.769531 0.28125 8.875 0.28125 Z M 8.875 0.28125 "/></g></g></g><g fill="#000000" fill-opacity="1"><g transform="translate(321.284814, 238.510791)"><g><path d="M 1.1875 -15.53125 C 1.1875 -15.882812 1.503906 -16.0625 2.140625 -16.0625 L 12.875 -16.0625 C 13.507812 -16.0625 13.828125 -15.882812 13.828125 -15.53125 C 13.828125 -15.164062 13.507812 -14.984375 12.875 -14.984375 L 3.109375 -14.984375 L 3.109375 -8.578125 L 11.46875 -8.578125 C 12.113281 -8.578125 12.4375 -8.398438 12.4375 -8.046875 C 12.4375 -7.679688 12.113281 -7.5 11.46875 -7.5 L 3.109375 -7.5 L 3.109375 -1.078125 L 12.875 -1.078125 C 13.507812 -1.078125 13.828125 -0.894531 13.828125 -0.53125 C 13.828125 -0.175781 13.507812 0 12.875 0 L 2.140625 0 C 1.503906 0 1.1875 -0.175781 1.1875 -0.53125 Z M 1.1875 -15.53125 "/></g></g></g><g fill="#0c693c" fill-opacity="1"><g transform="translate(18.558889, 255.419191)"><g><path d="M 23.296875 0.6875 C 21.597656 0.382812 20.519531 0.00390625 20.0625 -0.453125 C 19.601562 -0.921875 19.296875 -2.078125 19.140625 -3.921875 C 18.984375 -6.078125 19.054688 -8.269531 19.359375 -10.5 C 19.671875 -12.726562 19.90625 -14.835938 20.0625 -16.828125 C 20.832031 -22.828125 21.789062 -28.75 22.9375 -34.59375 C 24.09375 -40.4375 25.363281 -46.28125 26.75 -52.125 C 28.4375 -59.34375 30.359375 -66.445312 32.515625 -73.4375 C 34.671875 -80.4375 36.820312 -87.472656 38.96875 -94.546875 C 41.125 -101.460938 43.203125 -108.34375 45.203125 -115.1875 C 47.203125 -122.03125 49.046875 -128.910156 50.734375 -135.828125 C 51.503906 -138.285156 52.117188 -140.78125 52.578125 -143.3125 C 53.035156 -145.851562 53.421875 -148.351562 53.734375 -150.8125 C 53.734375 -151.425781 53.769531 -152.003906 53.84375 -152.546875 C 53.925781 -153.085938 53.8125 -153.664062 53.5 -154.28125 C 52.882812 -154.4375 52.304688 -154.320312 51.765625 -153.9375 C 51.234375 -153.550781 50.660156 -153.203125 50.046875 -152.890625 C 47.734375 -151.503906 45.539062 -149.925781 43.46875 -148.15625 C 41.394531 -146.394531 39.359375 -144.4375 37.359375 -142.28125 C 30.742188 -135.207031 24.898438 -127.671875 19.828125 -119.671875 C 14.753906 -111.679688 10.601562 -103.15625 7.375 -94.09375 C 6.300781 -91.164062 5.378906 -88.238281 4.609375 -85.3125 C 3.835938 -82.394531 3.222656 -79.398438 2.765625 -76.328125 C 2.609375 -74.484375 2.53125 -72.597656 2.53125 -70.671875 C 2.53125 -68.753906 2.765625 -66.796875 3.234375 -64.796875 C 3.691406 -62.492188 4.535156 -60.570312 5.765625 -59.03125 C 7.304688 -57.03125 9.226562 -56.109375 11.53125 -56.265625 C 12.144531 -56.265625 12.453125 -56.265625 12.453125 -56.265625 C 12.910156 -56.265625 13.332031 -56.378906 13.71875 -56.609375 C 14.101562 -56.835938 14.453125 -56.644531 14.765625 -56.03125 C 14.453125 -55.726562 14.066406 -55.613281 13.609375 -55.6875 C 13.148438 -55.769531 12.765625 -55.734375 12.453125 -55.578125 C 11.378906 -55.578125 10.535156 -55.65625 9.921875 -55.8125 C 6.691406 -56.113281 4.226562 -57.648438 2.53125 -60.421875 C 1.300781 -62.722656 0.535156 -65.410156 0.234375 -68.484375 C -0.078125 -71.566406 -0.0390625 -74.53125 0.34375 -77.375 C 0.726562 -80.21875 1.226562 -83.097656 1.84375 -86.015625 C 4 -95.546875 7.265625 -104.539062 11.640625 -113 C 16.023438 -121.457031 21.289062 -129.453125 27.4375 -136.984375 C 30.050781 -140.054688 32.742188 -142.9375 35.515625 -145.625 C 38.285156 -148.320312 41.28125 -150.898438 44.5 -153.359375 C 45.269531 -153.972656 46.078125 -154.507812 46.921875 -154.96875 C 47.773438 -155.425781 48.582031 -155.960938 49.34375 -156.578125 C 50.882812 -157.347656 52.304688 -157.539062 53.609375 -157.15625 C 54.921875 -156.769531 56.191406 -156.195312 57.421875 -155.4375 C 58.191406 -155.125 58.578125 -154.351562 58.578125 -153.125 C 58.734375 -152.050781 58.769531 -150.9375 58.6875 -149.78125 C 58.613281 -148.625 58.5 -147.429688 58.34375 -146.203125 C 58.1875 -143.742188 57.835938 -141.359375 57.296875 -139.046875 C 56.765625 -136.742188 56.191406 -134.363281 55.578125 -131.90625 C 53.734375 -124.375 51.695312 -116.878906 49.46875 -109.421875 C 47.238281 -101.960938 44.96875 -94.46875 42.65625 -86.9375 C 40.664062 -80.175781 38.671875 -73.410156 36.671875 -66.640625 C 34.671875 -59.878906 32.820312 -53.039062 31.125 -46.125 C 29.894531 -40.582031 28.703125 -35.003906 27.546875 -29.390625 C 26.398438 -23.785156 25.441406 -18.140625 24.671875 -12.453125 L 23.984375 -5.765625 C 24.753906 -6.222656 25.253906 -6.722656 25.484375 -7.265625 C 25.710938 -7.804688 25.90625 -8.304688 26.0625 -8.765625 C 27.75 -12.148438 29.285156 -15.570312 30.671875 -19.03125 C 32.054688 -22.488281 33.441406 -25.90625 34.828125 -29.28125 C 38.054688 -37.894531 41.398438 -46.46875 44.859375 -55 C 48.316406 -63.53125 51.8125 -72.023438 55.34375 -80.484375 C 57.1875 -85.242188 59.109375 -89.929688 61.109375 -94.546875 C 63.109375 -99.160156 65.1875 -103.773438 67.34375 -108.390625 C 69.957031 -113.617188 72.609375 -118.726562 75.296875 -123.71875 C 77.984375 -128.71875 81.019531 -133.523438 84.40625 -138.140625 C 85.789062 -140.140625 87.210938 -142.0625 88.671875 -143.90625 C 90.128906 -145.75 91.628906 -147.515625 93.171875 -149.203125 C 94.242188 -150.429688 95.550781 -151.582031 97.09375 -152.65625 C 98.007812 -153.425781 99.238281 -153.582031 100.78125 -153.125 C 102.78125 -152.507812 104.046875 -151.703125 104.578125 -150.703125 C 105.117188 -149.703125 105.234375 -148.125 104.921875 -145.96875 C 104.617188 -144.125 104.234375 -142.238281 103.765625 -140.3125 C 103.304688 -138.394531 102.847656 -136.515625 102.390625 -134.671875 C 100.847656 -128.679688 99.15625 -122.765625 97.3125 -116.921875 C 95.46875 -111.078125 93.546875 -105.234375 91.546875 -99.390625 C 89.703125 -94.015625 87.859375 -88.597656 86.015625 -83.140625 C 84.171875 -77.679688 82.40625 -72.179688 80.71875 -66.640625 C 78.71875 -60.492188 77.023438 -54.269531 75.640625 -47.96875 C 74.253906 -41.664062 73.023438 -35.363281 71.953125 -29.0625 C 71.796875 -28.59375 71.71875 -28.128906 71.71875 -27.671875 C 71.71875 -27.210938 71.640625 -26.753906 71.484375 -26.296875 C 71.484375 -25.671875 71.40625 -25.128906 71.25 -24.671875 C 71.101562 -24.210938 71.257812 -23.675781 71.71875 -23.0625 C 72.332031 -23.363281 72.753906 -23.785156 72.984375 -24.328125 C 73.210938 -24.867188 73.40625 -25.367188 73.5625 -25.828125 C 75.5625 -29.671875 77.441406 -33.585938 79.203125 -37.578125 C 80.972656 -41.578125 82.707031 -45.578125 84.40625 -49.578125 C 86.40625 -54.035156 88.328125 -58.492188 90.171875 -62.953125 C 92.015625 -67.410156 93.9375 -71.789062 95.9375 -76.09375 C 98.394531 -81.476562 101.238281 -86.707031 104.46875 -91.78125 C 105.238281 -93.007812 106.046875 -94.203125 106.890625 -95.359375 C 107.734375 -96.515625 108.617188 -97.628906 109.546875 -98.703125 L 111.15625 -100.3125 C 112.539062 -101.695312 113.613281 -102.425781 114.375 -102.5 C 115.144531 -102.582031 116.53125 -102.238281 118.53125 -101.46875 C 119.300781 -101.007812 119.835938 -100.238281 120.140625 -99.15625 C 120.609375 -97.3125 120.765625 -95.695312 120.609375 -94.3125 L 118.53125 -77.953125 C 118.375 -75.023438 118.257812 -72.140625 118.1875 -69.296875 C 118.113281 -66.453125 118.382812 -63.644531 119 -60.875 C 119.144531 -58.726562 119.910156 -56.578125 121.296875 -54.421875 C 123.140625 -51.503906 125.753906 -49.96875 129.140625 -49.8125 C 131.296875 -49.8125 133.296875 -50.117188 135.140625 -50.734375 C 136.984375 -51.347656 138.75 -52.191406 140.4375 -53.265625 C 144.125 -55.722656 147.738281 -58.800781 151.28125 -62.5 C 155.125 -66.34375 158.738281 -70.1875 162.125 -74.03125 C 162.425781 -74.332031 162.65625 -74.5625 162.8125 -74.71875 C 162.96875 -74.875 163.117188 -75.023438 163.265625 -75.171875 C 164.648438 -76.554688 165.957031 -76.632812 167.1875 -75.40625 C 167.34375 -75.25 167.34375 -74.941406 167.1875 -74.484375 C 166.570312 -73.867188 166.1875 -73.410156 166.03125 -73.109375 L 155.4375 -61.578125 C 152.351562 -58.191406 148.816406 -55.039062 144.828125 -52.125 C 139.140625 -48.125 133.140625 -47.125 126.828125 -49.125 L 124.0625 -49.8125 C 119.914062 -51.195312 117 -54.117188 115.3125 -58.578125 C 114.539062 -60.878906 114.15625 -63.109375 114.15625 -65.265625 C 114 -67.722656 113.957031 -70.140625 114.03125 -72.515625 C 114.113281 -74.898438 114.226562 -77.328125 114.375 -79.796875 C 114.6875 -82.410156 115.035156 -84.984375 115.421875 -87.515625 C 115.804688 -90.054688 116.078125 -92.554688 116.234375 -95.015625 C 116.378906 -95.785156 116.453125 -96.476562 116.453125 -97.09375 C 116.453125 -97.707031 116.453125 -98.320312 116.453125 -98.9375 C 116.453125 -99.082031 116.300781 -99.3125 116 -99.625 C 115.84375 -99.625 115.6875 -99.582031 115.53125 -99.5 C 115.382812 -99.425781 115.234375 -99.390625 115.078125 -99.390625 C 113.234375 -97.859375 111.617188 -96.015625 110.234375 -93.859375 C 108.234375 -90.929688 106.347656 -87.929688 104.578125 -84.859375 C 102.804688 -81.785156 101.078125 -78.632812 99.390625 -75.40625 C 97.242188 -70.644531 95.171875 -65.84375 93.171875 -61 C 91.171875 -56.15625 89.09375 -51.273438 86.9375 -46.359375 C 85.09375 -42.046875 83.25 -37.773438 81.40625 -33.546875 C 79.5625 -29.328125 77.5625 -25.21875 75.40625 -21.21875 C 74.945312 -20.445312 74.523438 -19.710938 74.140625 -19.015625 C 73.753906 -18.328125 73.332031 -17.597656 72.875 -16.828125 C 72.257812 -16.066406 71.335938 -15.757812 70.109375 -15.90625 C 68.410156 -16.21875 67.332031 -16.601562 66.875 -17.0625 C 66.414062 -17.519531 66.1875 -18.675781 66.1875 -20.53125 C 66.1875 -22.988281 66.378906 -25.40625 66.765625 -27.78125 C 67.148438 -30.164062 67.492188 -32.585938 67.796875 -35.046875 C 69.179688 -43.660156 71.066406 -52.078125 73.453125 -60.296875 C 75.835938 -68.523438 78.332031 -76.640625 80.9375 -84.640625 C 83.09375 -90.941406 85.207031 -97.164062 87.28125 -103.3125 C 89.363281 -109.457031 91.398438 -115.609375 93.390625 -121.765625 C 96.316406 -129.910156 98.703125 -138.597656 100.546875 -147.828125 C 100.546875 -148.585938 100.625 -149.203125 100.78125 -149.671875 C 100.78125 -149.972656 100.660156 -150.160156 100.421875 -150.234375 C 100.191406 -150.316406 100.003906 -150.28125 99.859375 -150.125 C 99.242188 -149.820312 98.703125 -149.4375 98.234375 -148.96875 C 97.773438 -148.507812 97.316406 -148.050781 96.859375 -147.59375 C 92.398438 -142.976562 88.25 -137.75 84.40625 -131.90625 C 81.175781 -126.988281 78.210938 -121.953125 75.515625 -116.796875 C 72.828125 -111.648438 70.175781 -106.382812 67.5625 -101 C 64.488281 -93.9375 61.488281 -86.90625 58.5625 -79.90625 C 55.644531 -72.90625 52.804688 -65.796875 50.046875 -58.578125 C 47.273438 -51.960938 44.582031 -45.234375 41.96875 -38.390625 C 39.351562 -31.554688 36.738281 -24.753906 34.125 -17.984375 C 33.207031 -15.523438 32.25 -13.140625 31.25 -10.828125 C 30.25 -8.523438 29.210938 -6.222656 28.140625 -3.921875 L 26.0625 -0.46875 C 25.289062 0.457031 24.367188 0.84375 23.296875 0.6875 Z M 23.296875 0.6875 "/></g></g></g><g fill="#0c693c" fill-opacity="1"><g transform="translate(179.054202, 255.419191)"><g><path d="M 32.28125 -56.5 C 30.75 -55.425781 29.289062 -55.039062 27.90625 -55.34375 C 26.519531 -55.65625 25.132812 -56.269531 23.75 -57.1875 C 23.132812 -57.5 22.597656 -58.347656 22.140625 -59.734375 C 21.828125 -60.960938 21.671875 -62.226562 21.671875 -63.53125 C 21.671875 -64.84375 21.75 -66.1875 21.90625 -67.5625 C 22.363281 -70.332031 22.976562 -73.0625 23.75 -75.75 C 24.519531 -78.445312 25.441406 -81.101562 26.515625 -83.71875 C 26.671875 -84.175781 26.863281 -84.632812 27.09375 -85.09375 C 27.320312 -85.550781 27.285156 -86.015625 26.984375 -86.484375 C 26.523438 -86.484375 26.21875 -86.328125 26.0625 -86.015625 C 25.90625 -85.710938 25.671875 -85.40625 25.359375 -85.09375 L 12.6875 -69.640625 C 11.914062 -68.722656 11.066406 -67.800781 10.140625 -66.875 C 9.222656 -65.957031 8.378906 -65.035156 7.609375 -64.109375 C 7.453125 -63.953125 7.21875 -63.796875 6.90625 -63.640625 C 6.601562 -63.492188 6.300781 -63.265625 6 -62.953125 C 4 -61.566406 2.226562 -61.722656 0.6875 -63.421875 C 0.226562 -63.878906 0 -64.414062 0 -65.03125 L 0.6875 -68.265625 C 2.84375 -74.109375 5.992188 -79.101562 10.140625 -83.25 C 10.910156 -84.019531 11.757812 -84.632812 12.6875 -85.09375 C 13.914062 -86.164062 15.601562 -86.394531 17.75 -85.78125 L 18.90625 -85.328125 C 20.132812 -84.710938 20.941406 -84.519531 21.328125 -84.75 C 21.710938 -84.976562 22.289062 -85.554688 23.0625 -86.484375 L 29.75 -94.78125 C 29.90625 -95.082031 30.210938 -95.46875 30.671875 -95.9375 C 31.597656 -96.851562 32.597656 -97.003906 33.671875 -96.390625 C 34.441406 -95.929688 34.75 -95.316406 34.59375 -94.546875 C 34.4375 -93.929688 34.28125 -93.351562 34.125 -92.8125 C 33.976562 -92.28125 33.75 -91.707031 33.4375 -91.09375 C 32.363281 -88.164062 31.285156 -85.316406 30.203125 -82.546875 C 29.128906 -79.785156 28.207031 -76.867188 27.4375 -73.796875 C 26.820312 -71.796875 26.320312 -69.832031 25.9375 -67.90625 C 25.550781 -65.988281 25.4375 -63.953125 25.59375 -61.796875 C 25.59375 -61.179688 25.628906 -60.601562 25.703125 -60.0625 C 25.785156 -59.53125 25.90625 -58.957031 26.0625 -58.34375 C 26.363281 -57.726562 26.820312 -57.5 27.4375 -57.65625 C 28.207031 -57.8125 28.898438 -58.039062 29.515625 -58.34375 C 30.128906 -58.65625 30.742188 -58.960938 31.359375 -59.265625 C 34.429688 -61.265625 37.273438 -63.570312 39.890625 -66.1875 C 41.117188 -67.414062 42.347656 -68.679688 43.578125 -69.984375 C 44.816406 -71.296875 45.972656 -72.566406 47.046875 -73.796875 C 47.503906 -74.097656 47.925781 -74.441406 48.3125 -74.828125 C 48.695312 -75.210938 49.039062 -75.5625 49.34375 -75.875 C 50.113281 -76.644531 50.882812 -76.796875 51.65625 -76.328125 C 52.726562 -75.867188 52.804688 -75.253906 51.890625 -74.484375 C 50.046875 -72.484375 48.195312 -70.484375 46.34375 -68.484375 C 44.5 -66.492188 42.582031 -64.570312 40.59375 -62.71875 C 39.507812 -61.800781 38.503906 -60.921875 37.578125 -60.078125 C 36.660156 -59.234375 35.585938 -58.425781 34.359375 -57.65625 Z M 4.375 -65.5 C 5.144531 -65.800781 5.757812 -66.21875 6.21875 -66.75 C 6.6875 -67.289062 7.148438 -67.796875 7.609375 -68.265625 C 9.765625 -70.566406 11.800781 -72.910156 13.71875 -75.296875 C 15.644531 -77.679688 17.609375 -80.023438 19.609375 -82.328125 C 20.367188 -83.398438 20.054688 -84.171875 18.671875 -84.640625 C 17.753906 -84.785156 16.910156 -84.628906 16.140625 -84.171875 C 15.523438 -84.015625 14.910156 -83.664062 14.296875 -83.125 C 13.679688 -82.59375 13.144531 -82.097656 12.6875 -81.640625 C 9.144531 -77.484375 6.300781 -72.640625 4.15625 -67.109375 C 3.84375 -66.648438 3.914062 -66.113281 4.375 -65.5 Z M 4.375 -65.5 "/></g></g></g><g fill="#0c693c" fill-opacity="1"><g transform="translate(224.712352, 255.419191)"><g><path d="M 13.140625 -38.046875 C 12.679688 -38.359375 12.296875 -39.050781 11.984375 -40.125 C 11.523438 -42.425781 11.523438 -44.8125 11.984375 -47.28125 C 12.453125 -50.351562 13.109375 -53.425781 13.953125 -56.5 C 14.796875 -59.570312 15.753906 -62.570312 16.828125 -65.5 L 22.375 -80.484375 C 22.519531 -80.785156 22.671875 -81.050781 22.828125 -81.28125 C 22.984375 -81.519531 22.984375 -81.945312 22.828125 -82.5625 C 22.210938 -82.40625 21.675781 -82.210938 21.21875 -81.984375 C 20.757812 -81.753906 20.296875 -81.484375 19.828125 -81.171875 C 18.140625 -80.398438 16.410156 -79.59375 14.640625 -78.75 C 12.867188 -77.90625 11.0625 -77.097656 9.21875 -76.328125 C 8.601562 -76.171875 7.875 -75.863281 7.03125 -75.40625 C 6.1875 -74.945312 5.148438 -75.023438 3.921875 -75.640625 C 3.304688 -76.097656 2.691406 -76.40625 2.078125 -76.5625 C 0.378906 -77.488281 -0.3125 -78.875 0 -80.71875 L 0.6875 -84.859375 C 2.382812 -91.628906 4.769531 -97.859375 7.84375 -103.546875 C 8.613281 -104.617188 9.304688 -105.65625 9.921875 -106.65625 C 10.535156 -107.65625 11.300781 -108.539062 12.21875 -109.3125 C 13.601562 -110.382812 15.066406 -110.460938 16.609375 -109.546875 C 18.296875 -108.460938 19.140625 -106.769531 19.140625 -104.46875 C 18.984375 -103.539062 18.828125 -102.65625 18.671875 -101.8125 C 18.523438 -100.96875 18.296875 -100.082031 17.984375 -99.15625 C 17.367188 -97.007812 16.640625 -94.894531 15.796875 -92.8125 C 14.953125 -90.738281 14.066406 -88.703125 13.140625 -86.703125 C 12.835938 -85.941406 12.453125 -85.132812 11.984375 -84.28125 C 11.523438 -83.4375 11.144531 -82.628906 10.84375 -81.859375 C 10.84375 -81.710938 10.800781 -81.5625 10.71875 -81.40625 C 10.644531 -81.25 10.6875 -81.09375 10.84375 -80.9375 L 11.765625 -80.9375 C 13.296875 -81.707031 14.789062 -82.4375 16.25 -83.125 C 17.71875 -83.820312 19.144531 -84.476562 20.53125 -85.09375 L 23.515625 -86.484375 C 24.285156 -86.941406 24.976562 -86.941406 25.59375 -86.484375 C 26.675781 -85.867188 27.445312 -85.367188 27.90625 -84.984375 C 28.363281 -84.597656 28.285156 -83.484375 27.671875 -81.640625 C 27.054688 -79.941406 26.441406 -78.207031 25.828125 -76.4375 C 25.210938 -74.675781 24.519531 -72.953125 23.75 -71.265625 C 22.363281 -67.421875 21.09375 -63.535156 19.9375 -59.609375 C 18.789062 -55.691406 17.832031 -51.734375 17.0625 -47.734375 C 16.90625 -46.816406 16.75 -45.859375 16.59375 -44.859375 C 16.445312 -43.859375 16.296875 -42.816406 16.140625 -41.734375 C 16.140625 -41.273438 16.296875 -40.96875 16.609375 -40.8125 C 16.753906 -40.664062 17.132812 -40.742188 17.75 -41.046875 L 20.75 -44.046875 C 22.90625 -46.347656 24.984375 -48.765625 26.984375 -51.296875 C 28.984375 -53.835938 30.984375 -56.34375 32.984375 -58.8125 C 34.828125 -61.269531 36.9375 -63.992188 39.3125 -66.984375 C 41.695312 -69.984375 43.8125 -72.640625 45.65625 -74.953125 L 47.046875 -76.5625 C 47.816406 -77.332031 48.660156 -77.488281 49.578125 -77.03125 C 50.503906 -76.71875 50.660156 -76.097656 50.046875 -75.171875 C 49.734375 -74.554688 49.425781 -74.097656 49.125 -73.796875 L 28.359375 -47.046875 C 27.441406 -45.972656 26.519531 -44.894531 25.59375 -43.8125 C 24.675781 -42.738281 23.675781 -41.585938 22.59375 -40.359375 C 22.445312 -40.046875 22.21875 -39.734375 21.90625 -39.421875 C 21.601562 -39.117188 21.296875 -38.816406 20.984375 -38.515625 C 19.296875 -36.972656 18.101562 -36.238281 17.40625 -36.3125 C 16.71875 -36.394531 15.296875 -36.972656 13.140625 -38.046875 Z M 4.15625 -78.40625 C 4.457031 -78.25 5.070312 -78.328125 6 -78.640625 C 6.613281 -78.796875 7.070312 -79.410156 7.375 -80.484375 C 9.375 -84.628906 11.144531 -88.625 12.6875 -92.46875 C 13.144531 -93.695312 13.566406 -94.890625 13.953125 -96.046875 C 14.335938 -97.203125 14.679688 -98.316406 14.984375 -99.390625 C 15.753906 -101.703125 16.140625 -103.703125 16.140625 -105.390625 C 16.140625 -106.160156 16.140625 -106.546875 16.140625 -106.546875 C 16.140625 -107.003906 15.988281 -107.3125 15.6875 -107.46875 C 15.53125 -107.613281 15.375 -107.609375 15.21875 -107.453125 C 15.0625 -107.304688 14.832031 -107.15625 14.53125 -107 C 13.144531 -105.613281 11.988281 -104 11.0625 -102.15625 C 7.21875 -95.082031 4.757812 -87.703125 3.6875 -80.015625 C 3.6875 -79.867188 3.6875 -79.640625 3.6875 -79.328125 C 3.6875 -79.023438 3.84375 -78.71875 4.15625 -78.40625 Z M 4.15625 -78.40625 "/></g></g></g><g fill="#0c693c" fill-opacity="1"><g transform="translate(268.295142, 255.419191)"><g><path d="M 57.890625 -76.328125 C 59.421875 -75.710938 59.570312 -74.789062 58.34375 -73.5625 L 52.34375 -68.484375 C 40.96875 -58.804688 30.207031 -48.273438 20.0625 -36.890625 C 18.519531 -35.203125 17.289062 -33.28125 16.375 -31.125 C 13.757812 -24.976562 11.03125 -18.90625 8.1875 -12.90625 C 5.34375 -6.914062 2.382812 -0.921875 -0.6875 5.078125 C -2.226562 7.992188 -3.804688 10.832031 -5.421875 13.59375 C -7.035156 16.363281 -8.914062 19.054688 -11.0625 21.671875 C -11.675781 22.441406 -12.367188 23.210938 -13.140625 23.984375 C -13.910156 24.753906 -14.679688 25.523438 -15.453125 26.296875 C -17.296875 27.367188 -19.0625 27.519531 -20.75 26.75 C -22.445312 26.132812 -23.21875 24.90625 -23.0625 23.0625 C -23.0625 21.675781 -22.832031 20.445312 -22.375 19.375 C -21.90625 17.675781 -21.328125 16.097656 -20.640625 14.640625 C -19.953125 13.179688 -19.222656 11.679688 -18.453125 10.140625 C -16.140625 5.992188 -13.675781 1.921875 -11.0625 -2.078125 C -8.457031 -6.078125 -5.691406 -10 -2.765625 -13.84375 C -0.304688 -16.914062 2.148438 -20.023438 4.609375 -23.171875 C 7.066406 -26.328125 9.523438 -29.441406 11.984375 -32.515625 C 12.453125 -32.972656 12.835938 -33.429688 13.140625 -33.890625 C 13.453125 -34.359375 13.6875 -34.820312 13.84375 -35.28125 C 17.6875 -44.039062 21.644531 -52.722656 25.71875 -61.328125 C 29.789062 -69.941406 33.75 -78.632812 37.59375 -87.40625 C 37.894531 -88.019531 38.195312 -88.632812 38.5 -89.25 C 38.8125 -89.863281 38.96875 -90.476562 38.96875 -91.09375 C 38.664062 -91.394531 38.394531 -91.429688 38.15625 -91.203125 C 37.925781 -90.972656 37.660156 -90.78125 37.359375 -90.625 C 36.128906 -89.550781 34.898438 -88.515625 33.671875 -87.515625 C 32.441406 -86.515625 31.210938 -85.476562 29.984375 -84.40625 C 25.367188 -80.5625 20.753906 -76.867188 16.140625 -73.328125 C 15.222656 -72.710938 14.265625 -72.097656 13.265625 -71.484375 C 12.265625 -70.867188 11.222656 -70.253906 10.140625 -69.640625 C 8.148438 -68.566406 6.226562 -68.722656 4.375 -70.109375 C 3.613281 -70.878906 3.304688 -71.644531 3.453125 -72.40625 C 3.453125 -72.875 3.488281 -73.335938 3.5625 -73.796875 C 3.644531 -74.253906 3.765625 -74.710938 3.921875 -75.171875 C 6.078125 -80.097656 9.226562 -84.175781 13.375 -87.40625 C 15.0625 -88.632812 16.753906 -89.320312 18.453125 -89.46875 C 21.066406 -89.9375 23.296875 -89.171875 25.140625 -87.171875 C 21.753906 -88.398438 18.601562 -87.785156 15.6875 -85.328125 C 13.6875 -83.785156 11.953125 -81.976562 10.484375 -79.90625 C 9.023438 -77.832031 7.835938 -75.640625 6.921875 -73.328125 C 6.765625 -73.023438 6.6875 -72.644531 6.6875 -72.1875 C 6.6875 -71.71875 6.914062 -71.484375 7.375 -71.484375 C 8.457031 -71.953125 9.535156 -72.566406 10.609375 -73.328125 C 13.066406 -74.867188 15.410156 -76.484375 17.640625 -78.171875 C 19.867188 -79.867188 22.0625 -81.640625 24.21875 -83.484375 C 28.976562 -87.171875 33.664062 -91.164062 38.28125 -95.46875 C 38.59375 -95.78125 38.863281 -96.007812 39.09375 -96.15625 C 39.320312 -96.3125 39.585938 -96.46875 39.890625 -96.625 C 40.660156 -97.394531 41.238281 -97.78125 41.625 -97.78125 C 42.007812 -97.78125 42.660156 -97.472656 43.578125 -96.859375 C 44.347656 -96.085938 44.65625 -95.394531 44.5 -94.78125 C 44.351562 -94.164062 44.203125 -93.585938 44.046875 -93.046875 C 43.890625 -92.515625 43.660156 -91.941406 43.359375 -91.328125 C 41.816406 -87.171875 40.125 -83.054688 38.28125 -78.984375 C 36.4375 -74.910156 34.59375 -70.875 32.75 -66.875 C 31.207031 -63.800781 29.707031 -60.6875 28.25 -57.53125 C 26.789062 -54.382812 25.367188 -51.273438 23.984375 -48.203125 C 23.828125 -47.734375 23.632812 -47.269531 23.40625 -46.8125 C 23.175781 -46.351562 23.140625 -45.816406 23.296875 -45.203125 C 24.671875 -46.734375 26.085938 -48.191406 27.546875 -49.578125 C 29.015625 -50.960938 30.441406 -52.425781 31.828125 -53.96875 L 50.046875 -71.265625 C 52.046875 -73.253906 53.96875 -74.863281 55.8125 -76.09375 C 56.425781 -76.5625 57.117188 -76.640625 57.890625 -76.328125 Z M 7.15625 -21.453125 L 7.15625 -21.671875 C 7.15625 -21.671875 7.15625 -21.632812 7.15625 -21.5625 C 7.15625 -21.488281 7.078125 -21.453125 6.921875 -21.453125 Z M 6.6875 -18.90625 C 7.300781 -19.988281 7.378906 -20.835938 6.921875 -21.453125 L 0.234375 -12.21875 C -2.535156 -8.53125 -5.226562 -4.765625 -7.84375 -0.921875 C -10.457031 2.921875 -12.914062 6.914062 -15.21875 11.0625 C -15.988281 12.601562 -16.753906 14.140625 -17.515625 15.671875 C -18.285156 17.210938 -18.90625 18.832031 -19.375 20.53125 C -19.832031 21.601562 -20.0625 22.832031 -20.0625 24.21875 C -20.0625 24.363281 -20.019531 24.472656 -19.9375 24.546875 C -19.863281 24.628906 -19.828125 24.671875 -19.828125 24.671875 C -19.523438 24.984375 -19.21875 24.984375 -18.90625 24.671875 C -17.675781 23.898438 -16.445312 22.75 -15.21875 21.21875 C -13.988281 19.988281 -12.910156 18.640625 -11.984375 17.171875 C -11.066406 15.710938 -10.144531 14.21875 -9.21875 12.6875 C -7.070312 9.144531 -5.035156 5.414062 -3.109375 1.5 C -1.191406 -2.414062 0.6875 -6.296875 2.53125 -10.140625 Z M 6.6875 -18.90625 "/></g></g></g><g fill="#0c693c" fill-opacity="1"><g transform="translate(320.640607, 255.419191)"><g><path d="M 11.296875 -58.34375 C 8.535156 -56.1875 6 -56.570312 3.6875 -59.5 C 3.226562 -60.113281 2.921875 -60.765625 2.765625 -61.453125 C 2.609375 -62.148438 2.457031 -62.804688 2.3125 -63.421875 C 2.3125 -66.648438 2.847656 -69.570312 3.921875 -72.1875 C 4.222656 -72.945312 4.488281 -73.785156 4.71875 -74.703125 C 4.957031 -75.628906 4.921875 -76.554688 4.609375 -77.484375 C 4.148438 -78.867188 4.304688 -80.328125 5.078125 -81.859375 C 6.765625 -87.242188 9.992188 -91.320312 14.765625 -94.09375 L 16.140625 -94.78125 C 18.453125 -95.550781 20.296875 -95.703125 21.671875 -95.234375 C 23.054688 -94.773438 24.671875 -93.625 26.515625 -91.78125 C 27.128906 -91.164062 27.4375 -90.242188 27.4375 -89.015625 C 27.75 -86.859375 27.675781 -85.09375 27.21875 -83.71875 C 26.289062 -79.5625 24.828125 -75.867188 22.828125 -72.640625 C 22.671875 -72.335938 22.515625 -71.992188 22.359375 -71.609375 C 22.210938 -71.222656 22.0625 -70.875 21.90625 -70.5625 C 21.445312 -70.101562 21.367188 -69.796875 21.671875 -69.640625 C 21.828125 -69.484375 22.210938 -69.40625 22.828125 -69.40625 C 25.898438 -70.019531 29.050781 -71.097656 32.28125 -72.640625 L 39.671875 -76.5625 C 40.128906 -76.875 40.703125 -76.875 41.390625 -76.5625 C 42.085938 -76.25 42.507812 -75.785156 42.65625 -75.171875 C 42.65625 -74.710938 42.425781 -74.253906 41.96875 -73.796875 L 37.125 -70.796875 C 32.363281 -68.179688 26.984375 -66.722656 20.984375 -66.421875 C 19.753906 -66.878906 18.601562 -66.265625 17.53125 -64.578125 C 16.601562 -63.492188 15.640625 -62.414062 14.640625 -61.34375 C 13.640625 -60.269531 12.523438 -59.269531 11.296875 -58.34375 Z M 15.90625 -69.40625 C 16.832031 -68.945312 17.679688 -69.253906 18.453125 -70.328125 C 20.140625 -73.253906 21.519531 -76.101562 22.59375 -78.875 C 23.0625 -80.40625 23.523438 -81.976562 23.984375 -83.59375 C 24.441406 -85.207031 24.671875 -86.9375 24.671875 -88.78125 C 24.671875 -89.238281 24.519531 -90.085938 24.21875 -91.328125 C 24.21875 -92.242188 23.753906 -92.703125 22.828125 -92.703125 C 21.296875 -92.703125 19.679688 -92.164062 17.984375 -91.09375 C 13.679688 -88.476562 10.609375 -84.632812 8.765625 -79.5625 C 8.453125 -78.789062 8.601562 -78.175781 9.21875 -77.71875 C 9.988281 -77.101562 10.066406 -76.332031 9.453125 -75.40625 C 9.453125 -75.40625 9.410156 -75.363281 9.328125 -75.28125 C 9.253906 -75.207031 9.21875 -75.097656 9.21875 -74.953125 C 8.457031 -73.253906 8.921875 -72.023438 10.609375 -71.265625 C 12.296875 -70.179688 14.0625 -69.5625 15.90625 -69.40625 Z M 7.84375 -59.5 C 9.070312 -60.269531 10.492188 -61.382812 12.109375 -62.84375 C 13.722656 -64.300781 14.914062 -65.722656 15.6875 -67.109375 L 14.53125 -67.796875 C 13.457031 -68.109375 12.457031 -68.570312 11.53125 -69.1875 C 10.601562 -69.800781 9.679688 -70.414062 8.765625 -71.03125 C 8.304688 -71.488281 7.921875 -71.410156 7.609375 -70.796875 C 6.222656 -67.410156 5.757812 -63.953125 6.21875 -60.421875 C 6.21875 -59.492188 6.757812 -59.1875 7.84375 -59.5 Z M 7.84375 -59.5 "/></g></g></g></svg>